<svg width="133" height="45" viewBox="0 0 133 45" fill="none" xmlns="http://www.w3.org/2000/svg">
<path fill-rule="evenodd" clip-rule="evenodd" d="M23.046 5.42974C24.564 7.27586 26.841 10.4523 27.7897 11.8097L33.7532 10.588C33.3195 7.22156 31.5847 4.75103 30.7715 3.93656C27.6271 1.87326 24.5821 0.452479 23.4526 0L22.3683 0.542974C23.0189 1.19454 23.0912 4.07231 23.046 5.42974ZM31.8558 4.20795L33.0756 2.98626C35.696 4.1627 41.0722 8.416 42.292 15.6104L40.1234 17.5108C39.1747 16.1081 36.7622 12.8955 34.702 11.2666C34.5665 9.95443 33.8075 6.70563 31.8558 4.20795ZM38.5813 26.2451C39.7237 23.5284 39.7779 23.3996 40.2589 18.4611L42.4275 16.2892C43.0148 19.3661 43.2407 26.47 40.2589 31.4925L38.9036 33.8001C38.9036 32.669 38.6325 29.2663 38.0904 27.4202C38.2736 26.9767 38.4362 26.59 38.5813 26.2451ZM27.9253 12.7598C27.4916 14.8231 25.8471 18.9588 25.0791 20.7687L29.5517 28.5061C32.913 28.2889 36.3736 27.3296 37.6838 26.8772C38.6596 25.3568 39.265 20.271 39.4457 17.9181C37.8193 15.2032 35.1538 12.5336 34.0243 11.5381C32.2895 12.0811 29.2355 12.5788 27.9253 12.7598ZM22.7749 43.9808C23.6785 43.3926 25.6211 42.1619 26.1633 41.9447H29.5517C28.5577 42.5329 25.8109 43.7636 22.7749 43.9808ZM9.357 28.5062C7.6854 28.3704 3.77297 27.8003 1.49599 26.6057C1.08938 27.6464 0.303282 30.298 0.411709 32.5785C1.17974 33.9359 3.44769 37.1937 6.37523 39.3656C7.14326 39.7276 9.30278 40.4787 11.7966 40.5873C12.0225 39.7276 12.7996 37.6824 14.1007 36.3793C12.7905 34.5241 10.0076 30.3523 9.357 28.5062ZM1.49599 25.6555C0.194859 23.4836 -0.040068 18.6874 0.00511021 16.5607C0.682784 15.3843 2.85134 12.4341 6.10417 10.045C6.86316 10.588 10.3057 11.4477 11.9322 11.8097C11.8237 14.0902 13.5134 18.2801 14.3718 20.09L9.357 27.6917C4.91147 27.1487 2.26402 26.108 1.49599 25.6555ZM15.3205 20.09H24.1303C24.9435 18.5063 26.6512 14.7417 26.9765 12.3526C26.2988 11.1309 24.4827 8.11744 22.6394 5.83695H17.4891C16.1789 7.33013 13.3959 10.6151 12.7454 11.8097C12.9261 13.4386 13.6941 17.3752 15.3205 20.09ZM14.914 36.9223C13.396 38.6598 12.7454 40.5421 12.6099 41.2661C14.2363 42.7864 16.1338 43.8452 16.947 43.9809C17.7602 44.1167 19.9288 44.2524 21.5552 43.9809C22.892 43.7578 24.0761 42.6176 24.882 41.8418C25.0565 41.6737 25.2134 41.5227 25.3501 41.4018C25.0249 40.2073 23.8593 38.0082 23.3171 37.058L14.914 36.9223ZM26.1633 41.2662C25.9826 40.4065 25.323 38.307 24.1303 36.7866C24.9435 36.0174 27.1663 33.4745 29.5517 29.4565C30.6811 29.5017 33.8346 29.2393 37.4127 27.8275L38.3614 34.479C36.3594 37.6636 35.0737 38.491 32.1925 40.3452C31.7578 40.6249 31.2868 40.9281 30.7715 41.2662H26.1633ZM23.7202 35.8215C19.4152 36.1489 15.9112 35.867 14.8798 35.6851C12.7273 32.9563 10.9336 29.4543 10.3057 28.0444C11.9201 25.4248 14.2071 22.223 15.1489 20.9496C17.0861 20.6221 21.8754 20.8132 24.0279 20.9496C25.427 22.8052 27.5705 26.9984 28.4674 28.8631C27.441 31.5606 25.0154 34.8213 23.7202 35.8215ZM7.27975 40.0894C7.98627 40.332 9.8142 40.9597 11.7356 41.1144C12.3515 41.72 14.0467 43.0159 15.5461 43.7093C17.4204 44.5761 9.94041 42.0229 7.14779 40.0443C7.186 40.0572 7.23011 40.0724 7.27975 40.0894Z" fill="#F46565"/>
<path d="M39.3587 44.216C38.5067 44.216 37.7267 44.06 37.0187 43.748C36.3107 43.424 35.7107 42.986 35.2187 42.434C34.7267 41.882 34.3727 41.264 34.1567 40.58L35.6867 39.95C36.0107 40.814 36.4907 41.48 37.1267 41.948C37.7747 42.404 38.5307 42.632 39.3947 42.632C39.9227 42.632 40.3847 42.548 40.7807 42.38C41.1767 42.212 41.4827 41.978 41.6987 41.678C41.9267 41.366 42.0407 41.006 42.0407 40.598C42.0407 40.034 41.8787 39.59 41.5547 39.266C41.2427 38.93 40.7807 38.678 40.1687 38.51L37.7027 37.754C36.7307 37.454 35.9867 36.98 35.4707 36.332C34.9547 35.684 34.6967 34.94 34.6967 34.1C34.6967 33.368 34.8707 32.726 35.2187 32.174C35.5787 31.61 36.0707 31.172 36.6947 30.86C37.3307 30.536 38.0507 30.374 38.8547 30.374C39.6587 30.374 40.3847 30.518 41.0327 30.806C41.6927 31.094 42.2507 31.484 42.7067 31.976C43.1627 32.456 43.4987 33.008 43.7147 33.632L42.2027 34.262C41.9147 33.506 41.4827 32.936 40.9067 32.552C40.3307 32.156 39.6527 31.958 38.8727 31.958C38.3927 31.958 37.9667 32.042 37.5947 32.21C37.2347 32.366 36.9527 32.6 36.7487 32.912C36.5567 33.212 36.4607 33.572 36.4607 33.992C36.4607 34.484 36.6167 34.922 36.9287 35.306C37.2407 35.69 37.7147 35.984 38.3507 36.188L40.6007 36.854C41.6567 37.178 42.4547 37.64 42.9947 38.24C43.5347 38.84 43.8047 39.584 43.8047 40.472C43.8047 41.204 43.6127 41.852 43.2287 42.416C42.8567 42.98 42.3347 43.424 41.6627 43.748C41.0027 44.06 40.2347 44.216 39.3587 44.216ZM44.6787 44L49.4847 30.59H51.5727L56.3787 44H54.4887L53.3907 40.85H47.6667L46.5687 44H44.6787ZM48.2247 39.23H52.8327L50.2767 31.868H50.7807L48.2247 39.23ZM63.3375 44.216C62.3895 44.216 61.5135 44.048 60.7095 43.712C59.9175 43.364 59.2215 42.878 58.6215 42.254C58.0335 41.63 57.5775 40.898 57.2535 40.058C56.9295 39.218 56.7675 38.3 56.7675 37.304C56.7675 36.296 56.9295 35.372 57.2535 34.532C57.5775 33.692 58.0335 32.96 58.6215 32.336C59.2095 31.712 59.9055 31.232 60.7095 30.896C61.5135 30.548 62.3895 30.374 63.3375 30.374C64.2615 30.374 65.0895 30.536 65.8215 30.86C66.5655 31.184 67.1895 31.604 67.6935 32.12C68.2095 32.636 68.5755 33.188 68.7915 33.776L67.1715 34.514C66.8595 33.77 66.3735 33.17 65.7135 32.714C65.0535 32.246 64.2615 32.012 63.3375 32.012C62.4015 32.012 61.5675 32.234 60.8355 32.678C60.1155 33.122 59.5515 33.74 59.1435 34.532C58.7355 35.324 58.5315 36.248 58.5315 37.304C58.5315 38.348 58.7355 39.266 59.1435 40.058C59.5515 40.85 60.1155 41.468 60.8355 41.912C61.5675 42.356 62.4015 42.578 63.3375 42.578C64.2615 42.578 65.0535 42.35 65.7135 41.894C66.3735 41.426 66.8595 40.82 67.1715 40.076L68.7915 40.814C68.5755 41.402 68.2095 41.954 67.6935 42.47C67.1895 42.986 66.5655 43.406 65.8215 43.73C65.0895 44.054 64.2615 44.216 63.3375 44.216ZM70.7589 39.914V38.384H77.5089V39.914H70.7589ZM80.051 44V30.59H88.547V32.21H81.815V36.548H87.917V38.168H81.815V44H80.051ZM93.2493 44.216C92.5533 44.216 91.9233 44.054 91.3593 43.73C90.8073 43.406 90.3753 42.956 90.0633 42.38C89.7633 41.792 89.6133 41.12 89.6133 40.364V34.298H91.2873V40.184C91.2873 40.664 91.3833 41.084 91.5753 41.444C91.7793 41.804 92.0553 42.086 92.4033 42.29C92.7633 42.494 93.1713 42.596 93.6273 42.596C94.0833 42.596 94.4853 42.494 94.8333 42.29C95.1933 42.086 95.4693 41.792 95.6613 41.408C95.8653 41.024 95.9673 40.568 95.9673 40.04V34.298H97.6593V44H96.0213V42.11L96.2913 42.272C96.0633 42.884 95.6733 43.364 95.1213 43.712C94.5813 44.048 93.9573 44.216 93.2493 44.216ZM92.9073 32.48L94.3293 29.636H96.5973L94.5813 32.48H92.9073ZM103.835 44.108C102.887 44.108 102.155 43.838 101.639 43.298C101.135 42.758 100.883 41.996 100.883 41.012V35.9H99.1187V34.298H99.4787C99.9107 34.298 100.253 34.166 100.505 33.902C100.757 33.638 100.883 33.29 100.883 32.858V32.066H102.557V34.298H104.735V35.9H102.557V40.958C102.557 41.282 102.605 41.564 102.701 41.804C102.809 42.044 102.983 42.236 103.223 42.38C103.463 42.512 103.781 42.578 104.177 42.578C104.261 42.578 104.363 42.572 104.483 42.56C104.615 42.548 104.735 42.536 104.843 42.524V44C104.687 44.036 104.513 44.06 104.321 44.072C104.129 44.096 103.967 44.108 103.835 44.108ZM111.691 44.216C110.911 44.216 110.197 44.042 109.549 43.694C108.913 43.346 108.421 42.854 108.073 42.218L108.307 41.93V44H106.669V30.374H108.343V36.386L108.091 35.972C108.451 35.396 108.943 34.94 109.567 34.604C110.191 34.256 110.905 34.082 111.709 34.082C112.621 34.082 113.437 34.304 114.157 34.748C114.889 35.192 115.465 35.798 115.885 36.566C116.305 37.322 116.515 38.186 116.515 39.158C116.515 40.106 116.305 40.964 115.885 41.732C115.465 42.5 114.889 43.106 114.157 43.55C113.437 43.994 112.615 44.216 111.691 44.216ZM111.565 42.596C112.177 42.596 112.723 42.446 113.203 42.146C113.683 41.846 114.055 41.438 114.319 40.922C114.595 40.394 114.733 39.806 114.733 39.158C114.733 38.486 114.595 37.898 114.319 37.394C114.055 36.878 113.683 36.47 113.203 36.17C112.723 35.858 112.177 35.702 111.565 35.702C110.953 35.702 110.401 35.852 109.909 36.152C109.429 36.452 109.045 36.866 108.757 37.394C108.481 37.91 108.343 38.498 108.343 39.158C108.343 39.806 108.481 40.394 108.757 40.922C109.045 41.438 109.429 41.846 109.909 42.146C110.401 42.446 110.953 42.596 111.565 42.596ZM122.958 44.216C122.022 44.216 121.176 44 120.42 43.568C119.664 43.124 119.064 42.518 118.62 41.75C118.176 40.982 117.954 40.112 117.954 39.14C117.954 38.168 118.17 37.304 118.602 36.548C119.046 35.792 119.646 35.192 120.402 34.748C121.158 34.304 122.01 34.082 122.958 34.082C123.894 34.082 124.74 34.304 125.496 34.748C126.252 35.18 126.846 35.774 127.278 36.53C127.722 37.286 127.944 38.156 127.944 39.14C127.944 40.124 127.716 41 127.26 41.768C126.804 42.524 126.198 43.124 125.442 43.568C124.698 44 123.87 44.216 122.958 44.216ZM122.958 42.596C123.558 42.596 124.098 42.446 124.578 42.146C125.07 41.846 125.454 41.432 125.73 40.904C126.018 40.376 126.162 39.788 126.162 39.14C126.162 38.48 126.018 37.898 125.73 37.394C125.454 36.878 125.07 36.47 124.578 36.17C124.098 35.858 123.558 35.702 122.958 35.702C122.346 35.702 121.794 35.858 121.302 36.17C120.822 36.47 120.438 36.878 120.15 37.394C119.862 37.898 119.718 38.48 119.718 39.14C119.718 39.788 119.862 40.376 120.15 40.904C120.438 41.432 120.822 41.846 121.302 42.146C121.794 42.446 122.346 42.596 122.958 42.596ZM129.768 44V30.374H131.442V44H129.768Z" fill="#1F1F1F"/>
</svg>
